# xmcd
#
# Track frame offsets:
#	150
#	19295
#	41283
#	58171
#	75507
#	88492
#	103993
#	122103
#	142137
#	159089
#	179813
#	196336
#	214129
#	230768
#	249872
#	272610
#	289433
#
# Disc length: 4139 seconds
#
# Revision: 1
# Processed by: cddbd v1.5.2PL0 Copyright (c) Steve Scherf et al.
# Submitted via: audiograbber 1.83.01
#
DISCID=03102911
DTITLE=Vários - By Jorge 5
DYEAR=2006
DGENRE=Hip Hop
TTITLE0=Ian Van Dal - Movin On
TTITLE1=Nelly - Dilema
TTITLE2=Nelly - My Place
TTITLE3=Rihana - Unfaithful
TTITLE4=Aksent - Zingy
TTITLE5=Bow Wow - Like You
TTITLE6=Coolio - Gangstas Paradise
TTITLE7=Fat Joe - What's Love
TTITLE8=Robbie Willians - Rudebox
TTITLE9=Justin - My Love
TTITLE10=Sean Paul - Never Gonna Be The Same
TTITLE11=Ludacris - Money Maker
TTITLE12=Eminem - Smack That
TTITLE13=The Game - It's Okay
TTITLE14=Bow Wow - My Baby
TTITLE15=Remy Ma - Conceited
TTITLE16=Kellis - I'm Bossy
EXTD=
EXTT0=
EXTT1=
EXTT2=
EXTT3=
EXTT4=
EXTT5=
EXTT6=
EXTT7=
EXTT8=
EXTT9=
EXTT10=
EXTT11=
EXTT12=
EXTT13=
EXTT14=
EXTT15=
EXTT16=
PLAYORDER=
